<mxfile host="app.diagrams.net" modified="2020-07-21T14:49:11.271Z" agent="5.0 (Windows NT 6.1; Win64; x64) AppleWebKit/537.36 (KHTML, like Gecko) Chrome/77.0.3865.90 Safari/537.36" etag="nzOr-OOIjGBGCtck6Kwl" version="13.4.9" type="github">
  <diagram id="e0J4ZgqpTrD-7o68dUj1" name="Page-1">
    <mxGraphModel dx="1422" dy="762" grid="1" gridSize="10" guides="1" tooltips="1" connect="1" arrows="1" fold="1" page="1" pageScale="1" pageWidth="827" pageHeight="1169" math="0" shadow="0">
      <root>
        <mxCell id="0" />
        <mxCell id="1" parent="0" />
        <mxCell id="ltiZ9SlddzqdUap-MCyv-2" value="" style="rounded=0;whiteSpace=wrap;html=1;" vertex="1" parent="1">
          <mxGeometry x="230" y="40" width="180" height="220" as="geometry" />
        </mxCell>
        <mxCell id="ltiZ9SlddzqdUap-MCyv-3" value="连接" style="text;html=1;strokeColor=none;fillColor=none;align=center;verticalAlign=middle;whiteSpace=wrap;rounded=0;" vertex="1" parent="1">
          <mxGeometry x="300" y="50" width="40" height="20" as="geometry" />
        </mxCell>
        <mxCell id="ltiZ9SlddzqdUap-MCyv-4" value="验证" style="rounded=1;whiteSpace=wrap;html=1;" vertex="1" parent="1">
          <mxGeometry x="280" y="80" width="80" height="30" as="geometry" />
        </mxCell>
        <mxCell id="ltiZ9SlddzqdUap-MCyv-5" value="解析" style="rounded=1;whiteSpace=wrap;html=1;" vertex="1" parent="1">
          <mxGeometry x="280" y="200" width="80" height="30" as="geometry" />
        </mxCell>
        <mxCell id="ltiZ9SlddzqdUap-MCyv-6" value="准备" style="rounded=1;whiteSpace=wrap;html=1;" vertex="1" parent="1">
          <mxGeometry x="280" y="140" width="80" height="30" as="geometry" />
        </mxCell>
        <mxCell id="ltiZ9SlddzqdUap-MCyv-7" value="初始化" style="rounded=1;whiteSpace=wrap;html=1;" vertex="1" parent="1">
          <mxGeometry x="450" y="200" width="80" height="30" as="geometry" />
        </mxCell>
        <mxCell id="ltiZ9SlddzqdUap-MCyv-8" value="加载" style="rounded=1;whiteSpace=wrap;html=1;" vertex="1" parent="1">
          <mxGeometry x="60" y="45" width="80" height="30" as="geometry" />
        </mxCell>
        <mxCell id="ltiZ9SlddzqdUap-MCyv-9" value="" style="shape=flexArrow;endArrow=classic;html=1;exitX=1;exitY=0.5;exitDx=0;exitDy=0;entryX=-0.006;entryY=0.091;entryDx=0;entryDy=0;entryPerimeter=0;" edge="1" parent="1" source="ltiZ9SlddzqdUap-MCyv-8" target="ltiZ9SlddzqdUap-MCyv-2">
          <mxGeometry width="50" height="50" relative="1" as="geometry">
            <mxPoint x="190" y="80" as="sourcePoint" />
            <mxPoint x="240" y="30" as="targetPoint" />
          </mxGeometry>
        </mxCell>
        <mxCell id="ltiZ9SlddzqdUap-MCyv-10" value="" style="shape=flexArrow;endArrow=classic;html=1;exitX=0.5;exitY=1;exitDx=0;exitDy=0;entryX=0.5;entryY=0;entryDx=0;entryDy=0;" edge="1" parent="1" source="ltiZ9SlddzqdUap-MCyv-4" target="ltiZ9SlddzqdUap-MCyv-6">
          <mxGeometry width="50" height="50" relative="1" as="geometry">
            <mxPoint x="170" y="220" as="sourcePoint" />
            <mxPoint x="220" y="170" as="targetPoint" />
          </mxGeometry>
        </mxCell>
        <mxCell id="ltiZ9SlddzqdUap-MCyv-11" value="" style="shape=flexArrow;endArrow=classic;html=1;exitX=0.5;exitY=1;exitDx=0;exitDy=0;entryX=0.5;entryY=0;entryDx=0;entryDy=0;" edge="1" parent="1" source="ltiZ9SlddzqdUap-MCyv-6" target="ltiZ9SlddzqdUap-MCyv-5">
          <mxGeometry width="50" height="50" relative="1" as="geometry">
            <mxPoint x="-10" y="230" as="sourcePoint" />
            <mxPoint x="40" y="180" as="targetPoint" />
          </mxGeometry>
        </mxCell>
        <mxCell id="ltiZ9SlddzqdUap-MCyv-12" value="" style="shape=flexArrow;endArrow=classic;html=1;exitX=1;exitY=0.5;exitDx=0;exitDy=0;entryX=0;entryY=0.5;entryDx=0;entryDy=0;" edge="1" parent="1" source="ltiZ9SlddzqdUap-MCyv-5" target="ltiZ9SlddzqdUap-MCyv-7">
          <mxGeometry width="50" height="50" relative="1" as="geometry">
            <mxPoint x="450" y="320" as="sourcePoint" />
            <mxPoint x="500" y="270" as="targetPoint" />
          </mxGeometry>
        </mxCell>
      </root>
    </mxGraphModel>
  </diagram>
</mxfile>
